<svg width="8" height="12" viewBox="0 0 8 12" fill="none" xmlns="http://www.w3.org/2000/svg">
<path d="M5.42897 6.00018L1.14147 1.71268C0.995637 1.56685 0.925151 1.39671 0.930012 1.20226C0.934874 1.00782 1.01022 0.83768 1.15605 0.691847C1.30189 0.546013 1.47203 0.473097 1.66647 0.473097C1.86091 0.473097 2.03105 0.546013 2.17689 0.691847L6.66855 5.16893C6.78522 5.2856 6.87272 5.41685 6.93105 5.56268C6.98939 5.70851 7.01855 5.85435 7.01855 6.00018C7.01855 6.14601 6.98939 6.29185 6.93105 6.43768C6.87272 6.58351 6.78522 6.71476 6.66855 6.83143L2.17689 11.3231C2.03105 11.4689 1.85849 11.5394 1.65918 11.5346C1.45987 11.5297 1.2873 11.4543 1.14147 11.3085C0.995638 11.1627 0.922722 10.9925 0.922722 10.7981C0.922722 10.6037 0.995638 10.4335 1.14147 10.2877L5.42897 6.00018Z" fill="#FF002B"/>
</svg>
