<svg width="12" height="20" viewBox="0 0 12 20" fill="none" xmlns="http://www.w3.org/2000/svg">
<path d="M3.5502 9.99938L10.9002 17.3494C11.1502 17.5994 11.271 17.891 11.2627 18.2244C11.2544 18.5577 11.1252 18.8494 10.8752 19.0994C10.6252 19.3494 10.3335 19.4744 10.0002 19.4744C9.66686 19.4744 9.3752 19.3494 9.1252 19.0994L1.4252 11.4244C1.2252 11.2244 1.0752 10.9994 0.975195 10.7494C0.875195 10.4994 0.825195 10.2494 0.825195 9.99938C0.825195 9.74938 0.875195 9.49938 0.975195 9.24938C1.0752 8.99938 1.2252 8.77438 1.4252 8.57438L9.1252 0.874378C9.3752 0.624378 9.67103 0.503545 10.0127 0.511878C10.3544 0.520211 10.6502 0.649378 10.9002 0.899378C11.1502 1.14938 11.2752 1.44104 11.2752 1.77438C11.2752 2.10771 11.1502 2.39938 10.9002 2.64938L3.5502 9.99938Z" fill="#FF002B"/>
</svg>
